<svg xmlns="http://www.w3.org/2000/svg" width="20" height="20" viewBox="0 0 20 20" fill="none"><path fill-rule="evenodd" clip-rule="evenodd" d="M10 18C14.4183 18 18 14.4183 18 10C18 5.58172 14.4183 2 10 2C5.58172 2 2 5.58172 2 10C2 14.4183 5.58172 18 10 18ZM10.6 6.8C10.6 6.46863 10.3314 6.2 10 6.2C9.66863 6.2 9.4 6.46863 9.4 6.8V10C9.4 10.1591 9.46321 10.3117 9.57574 10.4243L11.5757 12.4243C11.8101 12.6586 12.1899 12.6586 12.4243 12.4243C12.6586 12.1899 12.6586 11.8101 12.4243 11.5757L10.6 9.75147V6.8Z" fill="currentColor"/></svg>
